<?xml version="1.0" encoding="utf-8"?>
<!-- Generator: Adobe Illustrator 25.2.0, SVG Export Plug-In . SVG Version: 6.00 Build 0)  -->
<svg version="1.1" id="Layer_1" xmlns="http://www.w3.org/2000/svg" xmlns:xlink="http://www.w3.org/1999/xlink" x="0px" y="0px"
	 viewBox="0 0 326.05 135.33" style="enable-background:new 0 0 326.05 135.33;" xml:space="preserve">
<style type="text/css">
	.st0{fill:#FFFFFF;}
</style>
<g>
	<path class="st0" d="M288.09,92.31l-166.06,0.01c0.91-1.77,1.72-3.6,2.43-5.48c-2.32-1.87-3.9-4.5-4.73-7.85
		c-3.93,16.44-16.52,29.51-32.69,34.12c0.18-1.34,0.28-2.65,0.28-2.65c0-0.95,0.19-2.07,0.39-2.91c0.19-0.84,0.15-6.75,0.15-9.13
		c-0.29-2.26,0.42-10.6,0.52-10.98c0.1-0.38,0.67-1.08,1.35-1.76s1.79-2.8,1.79-2.8c1.35-1.81,1.66-1.4,2.32-2.82
		c0.66-1.41,1.8-7.55,2.07-8.05c0.44-0.82,1.66-8.22,1.54-9.17c-0.12-0.95-0.37-0.62-0.87-0.37l-8.45,7.44
		c-0.22,0.31-0.62,0.3-0.83-0.21s-0.75-0.87-0.75-0.87c-0.67-0.25-2.16-1.9-4.14-3.66c-1.71-2.12-3.79-1.96-4.91-2.4
		s-8.73-2.05-9.7-2.11c-0.97-0.05,0,1.23,0,1.23c1.77,2.33,7.54,9.26,7.54,9.26s-0.26-0.33,0.83,2.2c1.09,2.53,1.86,5.32,2.56,6.53
		c0.58,2.48,1.83,3.26,2.5,3.61c0.67,0.36,0.42,0.66,0.42,0.66c-0.44,0.24-1.41,1.21-1.94,1.21c-0.53,0-1.14,0.78-1.14,0.78
		c-0.65,0.59,0.24,15.7,0.24,16.38s-0.37,0.86-0.37,0.86s-0.34-0.34-0.23-0.69c0.1-0.36-0.16-4.4-0.32-5.33
		c-0.37-0.76-0.24-1.72-0.24-1.72c0.24-1.13-0.84-8.15-1.12-9.08c-0.28-0.93-0.02-1.92-0.4-2.3s-3.99-0.03-4.29-0.32s0-0.3,0-0.3
		c1.81-0.17,5.93-3.22,5.94-4.14c0.01-0.92-12.92-20.03-14.12-20.73c-1.2-0.71-3.3-1.14-3.89-1.43c-0.59-0.3-1.58-1.12-3.09-1.32
		c-1.51-0.2-1.72-0.51-1.83-0.73c-0.11-0.22,1.21-0.41,1.21-0.41c1.75-1.22,2.84-4.23,2.38-5.42c-0.47-1.18-0.09-1.44-0.09-1.44
		c1.44,0.67,5.47,5.05,5.47,5.05c2.76,0.6,7.72-1.33,9.35-2.09c1.63-0.76,2.01-5.35,1.73-6.31c-0.28-0.95-17.45-8.29-20.39-8.75
		c-3.46-0.53-14.39,18.73-14.39,21.16s7.68,10.45,11.42,16.97c3.66,6.38,8.23,10.99,7.8,11.96c-1.13,6.54-1.75,9.38-2.86,17.41
		c-0.49,3.54-0.49,6.09-0.35,7.84c-16.89-7.07-28.76-23.76-28.76-43.21c0-25.87,20.97-46.83,46.83-46.83
		c21.15,0,39.02,14.02,44.83,33.28v-9.82v-6.81c-0.01-0.02-0.03-0.04-0.04-0.06h171.15l16.42-16.58H101.74
		c-8.17-4.95-17.76-7.8-28.01-7.8c-29.95,0-54.23,24.28-54.23,54.23s24.28,54.23,54.23,54.23c13.45,0,25.75-4.91,35.23-13.02
		l165.28-0.31L288.09,92.31z"/>
	<path class="st0" d="M210.87,43.05h-8.46c-0.33,0-0.61,0.17-0.84,0.51c-0.23,0.34-0.34,0.73-0.34,1.19v40.89
		c0,0.45,0.11,0.85,0.34,1.19c0.23,0.34,0.51,0.51,0.84,0.51h8.46c0.33,0,0.61-0.17,0.84-0.51s0.34-0.73,0.34-1.19V44.74
		c0-0.45-0.11-0.85-0.34-1.19S211.2,43.05,210.87,43.05z"/>
	<path class="st0" d="M226.69,86.81c0.27,0.34,0.59,0.51,0.96,0.51h9.96c0.39,0,0.72-0.17,0.98-0.51c0.26-0.34,0.39-0.73,0.39-1.19
		V54.17h9.37c0.39,0,0.73-0.17,1-0.51c0.27-0.34,0.41-0.75,0.41-1.24v-7.68c0-0.45-0.14-0.85-0.41-1.19s-0.61-0.51-1-0.51h-31.46
		c-0.39,0-0.72,0.17-0.98,0.51c-0.26,0.34-0.39,0.73-0.39,1.19v7.68c0,0.49,0.13,0.9,0.39,1.24c0.26,0.34,0.58,0.51,0.98,0.51h9.41
		v31.46C226.28,86.08,226.41,86.47,226.69,86.81z"/>
	<path class="st0" d="M279.29,54.74c0.36,0,0.68-0.17,0.95-0.51s0.41-0.75,0.41-1.24v-8.25c0-0.45-0.14-0.85-0.41-1.19
		s-0.59-0.51-0.95-0.51h-26.5c-0.36,0-0.68,0.17-0.96,0.51s-0.41,0.73-0.41,1.19v40.89c0,0.45,0.14,0.85,0.41,1.19
		s0.59,0.51,0.96,0.51h27.73c0.39,0,0.72-0.17,0.98-0.51s0.39-0.73,0.39-1.19v-8.25c0-0.49-0.13-0.9-0.39-1.24s-0.58-0.51-0.98-0.51
		h-16.5v-4.74l13.05-0.06c0.36,0,0.68-0.17,0.96-0.51s0.41-0.75,0.41-1.24v-8.13c0-0.45-0.14-0.85-0.41-1.19
		c-0.27-0.34-0.59-0.51-0.96-0.51h-13.05v-4.52H279.29z"/>
	<polygon class="st0" points="277.84,108.57 305.57,108.57 291.69,92.31 	"/>
	<polygon class="st0" points="285.17,87.32 298.26,87.32 300.14,42.33 283.29,42.33 	"/>
	<path class="st0" d="M86.63,68.43c0.63,0.65,1.72,0.61,2.44-0.08l12.72-12.28c0.72-0.69,0.79-1.79,0.17-2.44l-3.94-4.04
		c-0.63-0.65-2.03-1.5-2.75-0.81L83.63,62.71c-0.72,0.69-0.79,1.79-0.17,2.44L86.63,68.43z"/>
	<path class="st0" d="M74.15,59.78l5.09,2.43c1.23,0.97,3.02,0.76,3.99-0.47l10.44-13.22c0.97-1.23,0.76-3.02-0.47-3.99l-4.73-4.67
		c-1.23-0.97-3.02-0.76-3.99,0.47l-10.8,15.45C72.72,57.02,72.93,58.81,74.15,59.78z"/>
	<path class="st0" d="M73.85,29.31c-0.11-0.8-1.01-1.41-1.74-1.87l-4.87-3.12c-1.32-0.84-3.08-0.46-3.93,0.86l-4.49,7
		c-0.45,0.71-1.96,2-1.75,2.75c0.18,0.65,1.69,1.41,2.3,1.8l5.77,2.48c1.32,0.84,2.49,0.48,3.34-0.84l4.49-7
		C73.35,30.78,73.93,29.95,73.85,29.31z"/>
	<path class="st0" d="M75.6,50.45c0.53,0.32,2.15-1.82,3.21-3.37c0.45-0.67,0.96-1.07,1.13-1.29c0.4-0.5,0.85-0.85,1.2-1.44
		l4.2-7.01c0.8-1.34,0.36-3.1-0.98-3.9l-6.03-3.61c-1.34-0.8-3.1-0.36-3.9,0.98l-4.2,7.01c-0.43,0.71-1.44,1.88-1.21,2.62
		c0.2,0.65,1.56,0.9,2.19,1.28c0.99,0.51,4.7,1.51,4.75,2.85C76.02,46.07,74.55,48.84,75.6,50.45z"/>
	<path class="st0" d="M74.33,52.1l-6.76,1.86c-1.12,0.3-3.51,1.04-4.19-0.09c-0.68-1.13-0.69-1.45-1.54-1.41
		c-1.4,0.28-1.05,1.49-0.73,1.88c0.66,0.77,5.17,3.8,7.55,4.63c0.29,0.1,0.54-0.08,0.98-0.75c0.45-0.67,4.36-5.05,4.71-5.57
		C74.62,52.1,74.33,52.1,74.33,52.1z"/>
	<path class="st0" d="M196.68,43.05h-8.87c-0.39,0-0.73,0.17-1,0.51c-0.27,0.34-0.41,0.73-0.41,1.19v20.78
		c-0.88-1.51-1.74-2.98-2.59-4.43c-0.85-1.45-1.71-2.89-2.59-4.32c-1.3-2.15-2.58-4.28-3.84-6.41c-1.26-2.13-2.55-4.32-3.89-6.58
		c-0.06-0.19-0.22-0.36-0.48-0.51c-0.26-0.15-0.48-0.23-0.66-0.23h-10.09c-0.36,0-0.68,0.17-0.96,0.51s-0.41,0.73-0.41,1.19v40.89
		c0,0.45,0.14,0.85,0.41,1.19s0.59,0.51,0.96,0.51h8.87c0.39,0,0.73-0.17,1-0.51s0.41-0.73,0.41-1.19V65.18l12.82,21.46
		c0.12,0.19,0.3,0.35,0.55,0.48c0.24,0.13,0.44,0.2,0.59,0.2h10.18c0.39,0,0.73-0.17,1-0.51s0.41-0.73,0.41-1.19V44.74
		c0-0.45-0.14-0.85-0.41-1.19S197.07,43.05,196.68,43.05z"/>
	<path class="st0" d="M133.76,43.5c-0.27-0.34-0.61-0.51-1-0.51h-9.32c-0.39,0-0.73,0.17-1,0.51c-0.04,0.05-0.05,0.1-0.09,0.15
		c-0.2,0.31-0.32,0.64-0.32,1.03v28.12c0,4.94,1.18,8.58,3.5,10.96c0.42,0.43,0.87,0.83,1.37,1.18c2.94,2.03,7.44,3.05,13.5,3.05
		c5.88,0,10.37-1.02,13.46-3.05c3.36-2.26,5.05-6.12,5.05-11.58V44.68c0-0.45-0.14-0.85-0.41-1.19s-0.59-0.51-0.95-0.51h-9.37
		c-0.39,0-0.73,0.17-1,0.51c-0.27,0.34-0.41,0.73-0.41,1.19v23.1c0,2.6-0.48,4.47-1.45,5.62c-0.97,1.15-2.55,1.72-4.73,1.72
		c-2.3,0-3.95-0.54-4.93-1.64c-0.99-1.09-1.48-2.94-1.48-5.53V44.68C134.17,44.23,134.03,43.84,133.76,43.5z"/>
</g>
</svg>
