<svg id="Layer_1" xmlns="http://www.w3.org/2000/svg" viewBox="0 0 326.05 135.33"><style>.st0{fill:#FFFFFF;}</style><path class="st0" d="M288.09 92.31l-166.06.01c.91-1.77 1.72-3.6 2.43-5.48-2.32-1.87-3.9-4.5-4.73-7.85-3.93 16.44-16.52 29.51-32.69 34.12.18-1.34.28-2.65.28-2.65 0-.95.19-2.07.39-2.91.19-.84.15-6.75.15-9.13-.29-2.26.42-10.6.52-10.98.1-.38.67-1.08 1.35-1.76s1.79-2.8 1.79-2.8c1.35-1.81 1.66-1.4 2.32-2.82.66-1.41 1.8-7.55 2.07-8.05.44-.82 1.66-8.22 1.54-9.17-.12-.95-.37-.62-.87-.37l-8.45 7.44c-.22.31-.62.3-.83-.21s-.75-.87-.75-.87c-.67-.25-2.16-1.9-4.14-3.66-1.71-2.12-3.79-1.96-4.91-2.4s-8.73-2.05-9.7-2.11c-.97-.05 0 1.23 0 1.23 1.77 2.33 7.54 9.26 7.54 9.26s-.26-.33.83 2.2c1.09 2.53 1.86 5.32 2.56 6.53.58 2.48 1.83 3.26 2.5 3.61.67.36.42.66.42.66-.44.24-1.41 1.21-1.94 1.21s-1.14.78-1.14.78c-.65.59.24 15.7.24 16.38s-.37.86-.37.86-.34-.34-.23-.69c.1-.36-.16-4.4-.32-5.33-.37-.76-.24-1.72-.24-1.72.24-1.13-.84-8.15-1.12-9.08-.28-.93-.02-1.92-.4-2.3s-3.99-.03-4.29-.32 0-.3 0-.3c1.81-.17 5.93-3.22 5.94-4.14.01-.92-12.92-20.03-14.12-20.73-1.2-.71-3.3-1.14-3.89-1.43-.59-.3-1.58-1.12-3.09-1.32-1.51-.2-1.72-.51-1.83-.73-.11-.22 1.21-.41 1.21-.41 1.75-1.22 2.84-4.23 2.38-5.42-.47-1.18-.09-1.44-.09-1.44 1.44.67 5.47 5.05 5.47 5.05 2.76.6 7.72-1.33 9.35-2.09 1.63-.76 2.01-5.35 1.73-6.31-.28-.95-17.45-8.29-20.39-8.75-3.46-.53-14.39 18.73-14.39 21.16s7.68 10.45 11.42 16.97c3.66 6.38 8.23 10.99 7.8 11.96-1.13 6.54-1.75 9.38-2.86 17.41-.49 3.54-.49 6.09-.35 7.84-16.89-7.07-28.76-23.76-28.76-43.21 0-25.87 20.97-46.83 46.83-46.83 21.15 0 39.02 14.02 44.83 33.28V37.87c-.01-.02-.03-.04-.04-.06h171.15l16.42-16.58H101.74c-8.17-4.95-17.76-7.8-28.01-7.8-29.95 0-54.23 24.28-54.23 54.23s24.28 54.23 54.23 54.23c13.45 0 25.75-4.91 35.23-13.02l165.28-.31 13.85-16.25z"/><path class="st0" d="M210.87 43.05h-8.46c-.33 0-.61.17-.84.51-.23.34-.34.73-.34 1.19v40.89c0 .45.11.85.34 1.19.23.34.51.51.84.51h8.46c.33 0 .61-.17.84-.51s.34-.73.34-1.19v-40.9c0-.45-.11-.85-.34-1.19s-.51-.5-.84-.5zM226.69 86.81c.27.34.59.51.96.51h9.96c.39 0 .72-.17.98-.51.26-.34.39-.73.39-1.19V54.17h9.37c.39 0 .73-.17 1-.51.27-.34.41-.75.41-1.24v-7.68c0-.45-.14-.85-.41-1.19s-.61-.51-1-.51h-31.46c-.39 0-.72.17-.98.51-.26.34-.39.73-.39 1.19v7.68c0 .49.13.9.39 1.24.26.34.58.51.98.51h9.41v31.46c-.02.45.11.84.39 1.18zM279.29 54.74c.36 0 .68-.17.95-.51s.41-.75.41-1.24v-8.25c0-.45-.14-.85-.41-1.19s-.59-.51-.95-.51h-26.5c-.36 0-.68.17-.96.51s-.41.73-.41 1.19v40.89c0 .45.14.85.41 1.19s.59.51.96.51h27.73c.39 0 .72-.17.98-.51s.39-.73.39-1.19v-8.25c0-.49-.13-.9-.39-1.24s-.58-.51-.98-.51h-16.5v-4.74l13.05-.06c.36 0 .68-.17.96-.51s.41-.75.41-1.24v-8.13c0-.45-.14-.85-.41-1.19-.27-.34-.59-.51-.96-.51h-13.05v-4.52h15.27zM277.84 108.57h27.73l-13.88-16.26zM285.17 87.32h13.09l1.88-44.99h-16.85zM86.63 68.43c.63.65 1.72.61 2.44-.08l12.72-12.28c.72-.69.79-1.79.17-2.44l-3.94-4.04c-.63-.65-2.03-1.5-2.75-.81L83.63 62.71c-.72.69-.79 1.79-.17 2.44l3.17 3.28zM74.15 59.78l5.09 2.43c1.23.97 3.02.76 3.99-.47l10.44-13.22c.97-1.23.76-3.02-.47-3.99l-4.73-4.67c-1.23-.97-3.02-.76-3.99.47l-10.8 15.45c-.96 1.24-.75 3.03.47 4zM73.85 29.31c-.11-.8-1.01-1.41-1.74-1.87l-4.87-3.12c-1.32-.84-3.08-.46-3.93.86l-4.49 7c-.45.71-1.96 2-1.75 2.75.18.65 1.69 1.41 2.3 1.8l5.77 2.48c1.32.84 2.49.48 3.34-.84l4.49-7c.38-.59.96-1.42.88-2.06zM75.6 50.45c.53.32 2.15-1.82 3.21-3.37.45-.67.96-1.07 1.13-1.29.4-.5.85-.85 1.2-1.44l4.2-7.01c.8-1.34.36-3.1-.98-3.9l-6.03-3.61c-1.34-.8-3.1-.36-3.9.98l-4.2 7.01c-.43.71-1.44 1.88-1.21 2.62.2.65 1.56.9 2.19 1.28.99.51 4.7 1.51 4.75 2.85.06 1.5-1.41 4.27-.36 5.88zM74.33 52.1l-6.76 1.86c-1.12.3-3.51 1.04-4.19-.09-.68-1.13-.69-1.45-1.54-1.41-1.4.28-1.05 1.49-.73 1.88.66.77 5.17 3.8 7.55 4.63.29.1.54-.08.98-.75.45-.67 4.36-5.05 4.71-5.57.27-.55-.02-.55-.02-.55zM196.68 43.05h-8.87c-.39 0-.73.17-1 .51-.27.34-.41.73-.41 1.19v20.78c-.88-1.51-1.74-2.98-2.59-4.43-.85-1.45-1.71-2.89-2.59-4.32-1.3-2.15-2.58-4.28-3.84-6.41-1.26-2.13-2.55-4.32-3.89-6.58-.06-.19-.22-.36-.48-.51-.26-.15-.48-.23-.66-.23h-10.09c-.36 0-.68.17-.96.51s-.41.73-.41 1.19v40.89c0 .45.14.85.41 1.19s.59.51.96.51h8.87c.39 0 .73-.17 1-.51s.41-.73.41-1.19V65.18l12.82 21.46c.12.19.3.35.55.48.24.13.44.2.59.2h10.18c.39 0 .73-.17 1-.51s.41-.73.41-1.19V44.74c0-.45-.14-.85-.41-1.19s-.61-.5-1-.5zM133.76 43.5c-.27-.34-.61-.51-1-.51h-9.32c-.39 0-.73.17-1 .51-.04.05-.05.1-.09.15-.2.31-.32.64-.32 1.03V72.8c0 4.94 1.18 8.58 3.5 10.96.42.43.87.83 1.37 1.18 2.94 2.03 7.44 3.05 13.5 3.05 5.88 0 10.37-1.02 13.46-3.05 3.36-2.26 5.05-6.12 5.05-11.58V44.68c0-.45-.14-.85-.41-1.19s-.59-.51-.95-.51h-9.37c-.39 0-.73.17-1 .51-.27.34-.41.73-.41 1.19v23.1c0 2.6-.48 4.47-1.45 5.62-.97 1.15-2.55 1.72-4.73 1.72-2.3 0-3.95-.54-4.93-1.64-.99-1.09-1.48-2.94-1.48-5.53V44.68c-.01-.45-.15-.84-.42-1.18z"/></svg>